# xmcd CD database file
#
# Track frame offsets:
#	150
#	16494
#	40548
#	57873
#	73767
#	89283
#	106569
#	123939
#	146439
#	163668
#	180243
#	197277
#	217182
#	240537
#	257850
#	279483
#	295311
#	310848
#	325602
#
# Disc length: 4568 seconds
#
# Revision: 2
# Processed by: cddbd v1.5.1PL0 Copyright (c) Steve Scherf et al.
# Submitted via: CDex 1.51
#
DISCID=0411d613
DTITLE=Slows - Hits and Slows
DYEAR=2004
DGENRE=Slow Rock
TTITLE0=Star academy 4-Laissez-moi danser
TTITLE1=Amade-Chanter qu'on les aime
TTITLE2=Britney Spears-Everytime
TTITLE3=Paolo Meneguzzi and Ophélie Cassy-In nome dell'amore
TTITLE4=Maroon 5-This love
TTITLE5=Alicia Keys-If I ain't got you
TTITLE6=Usher-Confessions part 2
TTITLE7=Dido-Sand in my shoes
TTITLE8=Roch Voisine-Tant pis
TTITLE9=Slai-Flamme (version radio)
TTITLE10=Eamon-Fuck it (I don't want you back)
TTITLE11=Christina Aguilera-The voice within
TTITLE12=Eliane Elias-So nice (samba de verao)
TTITLE13=Sita-Ce qui nous rend fous
TTITLE14=Corneille-Seul au monde
TTITLE15=Elodie Frege and Michal-Viens jusqu'à moi
TTITLE16=Bonnye Tyler and Kareen Antonn-Si tout s'arrête
TTITLE17=Jessica Simpson-Take my breath away
TTITLE18=Kyo-Chaque seconde
EXTD=hits&slows YEAR: 2004
EXTT0=
EXTT1=
EXTT2=
EXTT3=
EXTT4=
EXTT5=
EXTT6=
EXTT7=
EXTT8=
EXTT9=
EXTT10=
EXTT11=
EXTT12=
EXTT13=
EXTT14=
EXTT15=
EXTT16=
EXTT17=
EXTT18=
PLAYORDER=
